<svg width="157" height="122" viewBox="0 0 157 122" fill="none" xmlns="http://www.w3.org/2000/svg">
<g clip-path="url(#clip0_402_3)">
<path d="M0 54.3455C0 71.6156 13.9429 85.5584 31.213 85.5584C48.3247 85.5584 62.426 71.6156 62.426 54.3455C62.426 37.2338 48.3247 23.1325 31.213 23.1325C13.9429 23.1325 0 37.2338 0 54.3455ZM133.725 11.0909C133.725 5.22857 138.636 0 144.816 0C150.995 0 156.223 5.22857 156.223 11.0909V74.4675C156.223 80.3299 150.995 85.5584 144.816 85.5584C138.636 85.5584 133.725 80.3299 133.725 74.4675V11.0909ZM8.23896 101.086C9.50649 112.018 18.5377 122 31.213 122C43.7299 122 53.0779 112.018 54.3455 101.086C56.0883 85.2416 41.6701 90.4701 31.213 90.4701C20.7558 90.4701 6.4961 85.2416 8.23896 101.086ZM108.849 58.7818C109.958 56.2468 112.81 54.6623 118.356 54.6623C127.07 54.5039 130.556 48.8 125.961 39.7688C122.792 33.5896 117.881 28.8364 111.226 25.826C95.5403 18.8545 77.0026 25.9844 70.0312 41.6701C63.0597 57.1974 70.0312 75.7351 85.8753 82.8649C92.5299 85.7169 99.1844 86.1922 105.997 84.4493C115.821 81.7558 117.881 75.2597 112.018 68.7636C108.374 64.4857 107.582 61.4753 108.849 58.7818Z" fill="#9AC01F"/>
<path d="M62 118.005C62 117.23 62.3302 116.574 62.9906 116.037C63.7018 115.501 64.5654 115.004 65.5814 114.547C66.6482 114.09 67.7912 113.633 69.0104 113.175C70.2296 112.698 71.3727 112.142 72.4395 111.506C73.0491 111.148 74.0143 110.641 75.3351 109.986C76.6559 109.33 78.0275 108.654 79.4499 107.958C80.9231 107.263 82.2439 106.627 83.4123 106.05C84.5807 105.474 85.3173 105.076 85.6221 104.858C85.6221 104.878 85.3935 104.739 84.9363 104.44C84.5299 104.142 83.9457 103.735 83.1837 103.218C82.4725 102.701 81.6343 102.105 80.6691 101.429C79.7547 100.754 78.7641 100.048 77.6973 99.3126C76.6813 98.5772 75.6653 97.8419 74.6493 97.1065C73.6333 96.3711 72.6935 95.6854 71.8299 95.0494C71.2203 94.632 70.5344 94.2246 69.7724 93.8271C69.0104 93.4097 68.2738 92.9824 67.5626 92.5451C66.9022 92.088 66.318 91.611 65.81 91.1141C65.3528 90.6173 65.1242 90.0707 65.1242 89.4744C65.1242 88.8583 65.6576 88.3217 66.7244 87.8646C67.842 87.3876 69.4422 87.1491 71.5251 87.1491C72.6427 87.1491 73.8619 87.4174 75.1827 87.954C76.5543 88.4708 77.9513 89.1465 79.3737 89.9813C80.8469 90.7961 82.3201 91.7104 83.7933 92.724C85.2665 93.7376 86.6635 94.7215 87.9843 95.6755C89.3051 96.6295 90.5244 97.504 91.642 98.299C92.7596 99.0741 93.6994 99.6604 94.4614 100.058C95.5282 99.5014 96.8236 98.7859 98.3476 97.9114C99.8716 97.0369 101.523 96.1227 103.301 95.1687C105.079 94.1948 106.958 93.2209 108.939 92.247C110.921 91.2731 112.902 90.3986 114.883 89.6235C116.915 88.8484 118.922 88.2223 120.903 87.7453C122.884 87.2484 124.789 87 126.618 87C128.802 87 130.479 87.2286 131.647 87.6857C132.816 88.1229 133.4 88.6298 133.4 89.2061C133.4 89.4645 133.247 89.7328 132.943 90.0111C132.689 90.2694 132.282 90.5079 131.723 90.7266C131.723 90.7266 131.393 90.8558 130.733 91.1141C130.072 91.3725 129.209 91.7005 128.142 92.098C127.126 92.4955 125.983 92.9426 124.713 93.4395C123.443 93.9165 122.173 94.4035 120.903 94.9003C119.684 95.3972 118.541 95.8643 117.474 96.3015C116.458 96.7388 115.67 97.0965 115.112 97.3748C113.943 97.9313 112.826 98.4779 111.759 99.0145C110.743 99.5312 109.701 100.068 108.635 100.624C107.619 101.181 106.552 101.757 105.434 102.353C104.367 102.95 103.224 103.586 102.005 104.261C102.513 104.639 103.123 105.057 103.834 105.514C104.545 105.951 105.282 106.408 106.044 106.885C106.806 107.342 107.593 107.799 108.406 108.256C109.219 108.714 110.006 109.141 110.768 109.538C112.394 110.373 113.943 111.168 115.416 111.923C116.89 112.659 118.338 113.315 119.76 113.891C121.182 114.447 122.605 114.895 124.027 115.233C125.5 115.57 127.024 115.739 128.599 115.739C129.107 115.739 129.564 115.729 129.971 115.71C130.377 115.67 130.733 115.65 131.038 115.65C131.393 115.65 131.723 115.69 132.028 115.769C132.333 115.829 132.689 115.948 133.095 116.127C133.857 116.524 134.365 116.892 134.619 117.23C134.873 117.568 135 117.936 135 118.333C135 119.029 134.771 119.615 134.314 120.092C133.908 120.549 133.349 120.917 132.638 121.195C131.927 121.493 131.114 121.702 130.199 121.821C129.285 121.94 128.371 122 127.456 122C125.78 122 124.002 121.821 122.122 121.463C120.243 121.125 118.363 120.688 116.483 120.152C114.654 119.635 112.876 119.058 111.149 118.422C109.422 117.786 107.873 117.18 106.501 116.604C105.993 116.405 105.409 116.157 104.748 115.859C104.139 115.541 103.478 115.193 102.767 114.815C102.056 114.438 101.319 114.05 100.557 113.652C99.8462 113.255 99.135 112.857 98.4238 112.46C96.7474 111.546 95.0456 110.572 93.3184 109.538C92.2008 110.075 90.8546 110.721 89.2797 111.476C87.7049 112.231 86.1809 112.967 84.7077 113.682C83.2853 114.398 82.0407 115.044 80.9739 115.62C79.9071 116.177 79.3229 116.524 79.2213 116.664C79.0689 116.922 78.8403 117.29 78.5355 117.767C78.2815 118.224 77.8751 118.681 77.3163 119.138C76.7575 119.575 75.9955 119.953 75.0303 120.271C74.1159 120.609 72.8967 120.778 71.3727 120.778C70.1534 120.778 68.985 120.738 67.8674 120.658C66.7498 120.579 65.7592 120.43 64.8956 120.211C64.032 120.012 63.3208 119.734 62.762 119.376C62.254 119.019 62 118.562 62 118.005Z" fill="#555050"/>
</g>
<defs>
<clipPath id="clip0_402_3">
<rect width="157" height="122" fill="white"/>
</clipPath>
</defs>
</svg>
